<svg xmlns="http://www.w3.org/2000/svg" fill="none" viewBox="0 0 137.51 131.227">
  <path fill="#000"
    d="M119.29 94.622a121.906 121.906 0 0 1-97.501.96l-2.28-.96V35.644l1.155-.51a121.857 121.857 0 0 1 97.457 0l1.154.51v58.978z" />
  <path fill="url(#k0smotronLightGradientA)"
    d="M69.415 105.974c-16.33 0-32.646-3.239-47.926-9.717l-2.714-1.154V35.18l1.59-.69c31.145-13.586 66.88-13.586 98.04 0l1.59.69v59.923l-.435.195c-15.895 7.122-33.02 10.691-50.16 10.691ZM20.229 94.143l1.83.78c30.786 13.076 65.92 12.791 96.497-.765V36.125l-.72-.315c-30.786-13.421-66.1-13.421-96.872 0l-.72.315v58.018z"
    style="fill:url(#k0smotronLightGradientA)" />
  <path fill="url(#k0smotronLightGradientB)"
    d="M104.13 48.555v19.75L87.904 56.353l-14.066 8.788v17.53H61.932l7.258 7.257v7.678c-11.202-.03-22.404-2.654-32.93-7.843l-1.575-.78V48.556l.81-.404c21.638-10.962 46.216-10.962 67.855 0l.81.404z"
    style="fill:url(#k0smotronLightGradientB)" />
  <path fill="#000"
    d="m65.56 65.14-12.82-8.802-11.907 8.803 10.542 7.783zM135.89 106.244c-7.452 9.582-18.91 15.37-30.231 19.224-28.596 8.968-61.737 7.873-88.519-6.193-5.278-2.954-10.287-6.523-14.23-11.052 4.813 3.554 10.016 6.313 15.46 8.473 32.6 13.151 89.509 12.641 117.536-10.452z" />
  <path fill="#000"
    d="M135.89 34.01C105.885 8.637 32.63 9.387 4.845 37.804l.72-1.815.12 15.07c.014 9.568.104 35.315.12 45.213l-.93-2.13c4.078 3.78 8.937 6.823 14.096 9.312 25.972 11.922 57.943 12.986 85.43 5.773 11.022-3.149 22.163-7.842 30.32-16.045l-.434 1.095c.09-4.963.195-9.942.315-14.935.3-13.467.84-31.881 1.29-45.347zm0 0c.45 13.39.99 31.686 1.29 45.077.135 5.263.24 10.527.33 15.805-8.412 9.372-20.094 14.845-31.881 18.534-31.7 9.657-78.802 7.663-104.7-15.04L0 97.53v-1.274c.165-17.575 0-43.983.255-61.348 28.927-30.606 105.794-29.826 135.636-.9Z" />
  <path fill="#000"
    d="M2.91 24.983C10.361 15.4 21.818 9.613 33.14 5.759c28.597-8.968 61.737-7.873 88.52 6.193 5.278 2.954 10.287 6.523 14.23 11.052-4.813-3.554-10.017-6.314-15.46-8.473C87.83 1.38 30.92 1.875 2.91 24.983Z" />
  <defs>
    <linearGradient id="k0smotronLightGradientA" x1="19.64" x2="120.86" y1="65.283" y2="65.283"
      gradientTransform="translate(-.85 -.142)" gradientUnits="userSpaceOnUse">
      <stop stop-color="#1DA7FD" />
      <stop offset="1" stop-color="#08F5DA" />
    </linearGradient>
    <linearGradient id="k0smotronLightGradientB" x1="70.25" x2="70.25" y1="42.384" y2="118.142"
      gradientTransform="translate(-.85 -.142)" gradientUnits="userSpaceOnUse">
      <stop stop-color="#1DA7FD" />
      <stop offset="1" stop-color="#08F5DA" />
    </linearGradient>
  </defs>
</svg>
