<svg xmlns="http://www.w3.org/2000/svg" viewBox="0 0 47.659 45.482" fill="none">
  <path fill="url(#k0smotronDarkGradientA)"
    d="M24.058 36.73a42.556 42.556 0 0 1-16.61-3.369l-.94-.4V12.193l.55-.24c10.795-4.708 23.18-4.708 33.98 0l.55.24V32.96l-.15.068a42.524 42.524 0 0 1-17.385 3.705zM7.011 32.628l.634.27c10.67 4.532 22.848 4.433 33.445-.265V12.52l-.25-.109c-10.67-4.651-22.91-4.651-33.574 0l-.25.11v20.108z"
    style="fill:url(#k0smotronDarkGradientA)" />
  <path fill="url(#k0smotronDarkGradientB)"
    d="M35.81 16.683c-7.5-3.794-16.019-3.794-23.518 0l-.281.14v14.012l.55.27c3.65 1.8 7.532 2.703 11.414 2.714v-2.656l-2.51-2.516h4.127v-6.075l4.875-3.046 5.623 4.142v-6.844zm-18.004 8.591-3.654-2.702 4.122-3.046 4.449 3.046z"
    style="fill:url(#k0smotronDarkGradientB)" />
  <path fill="#fff"
    d="M47.098 36.823c-2.583 3.32-6.554 5.327-10.478 6.663-9.911 3.108-21.397 2.728-30.68-2.147-1.829-1.024-3.565-2.26-4.932-3.83 1.669 1.232 3.472 2.188 5.359 2.936 11.299 4.558 31.022 4.382 40.736-3.622z" />
  <path fill="#fff"
    d="M47.098 11.787c-10.4-8.793-35.789-8.534-45.42 1.315l.25-.629.042 5.224c.005 3.316.036 12.24.041 15.67l-.322-.739c1.414 1.31 3.098 2.365 4.886 3.228 9.001 4.132 20.082 4.5 29.609 2.001 3.82-1.092 7.681-2.718 10.508-5.561l-.15.38c.03-1.721.067-3.447.109-5.177.104-4.667.29-11.05.447-15.717zm0 0c.156 4.641.343 10.982.447 15.623.047 1.825.083 3.649.114 5.478-2.916 3.249-6.964 5.146-11.05 6.424C25.624 42.66 9.299 41.968.323 34.1L0 33.803v-.442c.057-6.09 0-15.243.088-21.262 10.026-10.607 36.667-10.337 47.01-.312z" />
  <path fill="#fff"
    d="M1.008 8.659c2.583-3.321 6.554-5.327 10.478-6.663 9.911-3.108 21.397-2.729 30.68 2.146 1.829 1.024 3.565 2.261 4.932 3.83-1.668-1.231-3.472-2.187-5.359-2.936C30.441.478 10.717.65 1.01 8.66z" />
  <defs>
    <linearGradient id="k0smotronDarkGradientA" x1="7.46" x2="42.542" y1="23.206" y2="23.206"
      gradientTransform="translate(-.948 -.628)" gradientUnits="userSpaceOnUse">
      <stop stop-color="#1DA7FD" />
      <stop offset="1" stop-color="#08F5DA" />
    </linearGradient>
    <linearGradient id="k0smotronDarkGradientB" x1="25.001" x2="25.001" y1="15.269" y2="41.521"
      gradientTransform="translate(-.948 -.628)" gradientUnits="userSpaceOnUse">
      <stop stop-color="#1DA7FD" />
      <stop offset="1" stop-color="#08F5DA" />
    </linearGradient>
  </defs>
</svg>
